<mxfile host="app.diagrams.net" modified="2023-08-25T15:01:21.228Z" agent="Mozilla/5.0 (Windows NT 10.0; Win64; x64; rv:109.0) Gecko/20100101 Firefox/117.0" etag="EcwsTnDeAGMmqju_S6Np" version="21.6.8" type="device">
  <diagram name="Pagina-1" id="Y4aSpAbc7ofVWhXzeQqd">
    <mxGraphModel dx="1050" dy="605" grid="1" gridSize="10" guides="1" tooltips="1" connect="1" arrows="1" fold="1" page="1" pageScale="1" pageWidth="827" pageHeight="1169" math="0" shadow="0">
      <root>
        <mxCell id="0" />
        <mxCell id="1" parent="0" />
        <mxCell id="om_oLx067shVRehD0WzR-8" style="edgeStyle=orthogonalEdgeStyle;rounded=0;orthogonalLoop=1;jettySize=auto;html=1;exitX=1;exitY=0.25;exitDx=0;exitDy=0;entryX=0;entryY=0.25;entryDx=0;entryDy=0;" edge="1" parent="1" source="om_oLx067shVRehD0WzR-1" target="om_oLx067shVRehD0WzR-4">
          <mxGeometry relative="1" as="geometry" />
        </mxCell>
        <mxCell id="om_oLx067shVRehD0WzR-9" style="edgeStyle=orthogonalEdgeStyle;rounded=0;orthogonalLoop=1;jettySize=auto;html=1;exitX=1;exitY=0.5;exitDx=0;exitDy=0;" edge="1" parent="1" source="om_oLx067shVRehD0WzR-1" target="om_oLx067shVRehD0WzR-4">
          <mxGeometry relative="1" as="geometry" />
        </mxCell>
        <mxCell id="om_oLx067shVRehD0WzR-10" style="edgeStyle=orthogonalEdgeStyle;rounded=0;orthogonalLoop=1;jettySize=auto;html=1;exitX=1;exitY=0.75;exitDx=0;exitDy=0;" edge="1" parent="1" source="om_oLx067shVRehD0WzR-1" target="om_oLx067shVRehD0WzR-4">
          <mxGeometry relative="1" as="geometry">
            <Array as="points">
              <mxPoint x="640" y="240" />
              <mxPoint x="640" y="240" />
            </Array>
          </mxGeometry>
        </mxCell>
        <mxCell id="om_oLx067shVRehD0WzR-22" style="edgeStyle=orthogonalEdgeStyle;rounded=0;orthogonalLoop=1;jettySize=auto;html=1;exitX=0;exitY=0.5;exitDx=0;exitDy=0;entryX=1;entryY=0.388;entryDx=0;entryDy=0;entryPerimeter=0;" edge="1" parent="1" source="om_oLx067shVRehD0WzR-1" target="om_oLx067shVRehD0WzR-2">
          <mxGeometry relative="1" as="geometry" />
        </mxCell>
        <mxCell id="om_oLx067shVRehD0WzR-23" style="edgeStyle=orthogonalEdgeStyle;rounded=0;orthogonalLoop=1;jettySize=auto;html=1;exitX=0;exitY=0.75;exitDx=0;exitDy=0;entryX=1;entryY=0.625;entryDx=0;entryDy=0;entryPerimeter=0;" edge="1" parent="1" source="om_oLx067shVRehD0WzR-1" target="om_oLx067shVRehD0WzR-2">
          <mxGeometry relative="1" as="geometry" />
        </mxCell>
        <mxCell id="om_oLx067shVRehD0WzR-1" value="Sistema di rilevamento" style="whiteSpace=wrap;html=1;aspect=fixed;" vertex="1" parent="1">
          <mxGeometry x="360" y="180" width="80" height="80" as="geometry" />
        </mxCell>
        <mxCell id="om_oLx067shVRehD0WzR-2" value="&lt;div&gt;Sonda/&lt;/div&gt;&lt;div&gt;luogo diverso&lt;br&gt;&lt;/div&gt;" style="whiteSpace=wrap;html=1;aspect=fixed;" vertex="1" parent="1">
          <mxGeometry x="80" y="190" width="80" height="80" as="geometry" />
        </mxCell>
        <mxCell id="om_oLx067shVRehD0WzR-4" value="Centro assistneza" style="whiteSpace=wrap;html=1;aspect=fixed;" vertex="1" parent="1">
          <mxGeometry x="620" y="180" width="80" height="80" as="geometry" />
        </mxCell>
        <mxCell id="om_oLx067shVRehD0WzR-12" value="" style="endArrow=none;dashed=1;html=1;rounded=0;" edge="1" parent="1">
          <mxGeometry width="50" height="50" relative="1" as="geometry">
            <mxPoint x="670" y="300" as="sourcePoint" />
            <mxPoint x="670" y="260" as="targetPoint" />
          </mxGeometry>
        </mxCell>
        <mxCell id="om_oLx067shVRehD0WzR-13" value="Componenti" style="text;html=1;align=center;verticalAlign=middle;resizable=0;points=[];autosize=1;strokeColor=none;fillColor=none;" vertex="1" parent="1">
          <mxGeometry x="655" y="268" width="90" height="30" as="geometry" />
        </mxCell>
        <mxCell id="om_oLx067shVRehD0WzR-14" value="&lt;div&gt;coordinate geografiche,&lt;/div&gt;&lt;div&gt;uantitÃ  di fumo,&lt;/div&gt;&lt;div&gt;liv sup 5 allarme&lt;br&gt;&lt;/div&gt;" style="ellipse;whiteSpace=wrap;html=1;aspect=fixed;" vertex="1" parent="1">
          <mxGeometry x="610" y="298" width="130" height="130" as="geometry" />
        </mxCell>
        <mxCell id="om_oLx067shVRehD0WzR-15" value="" style="endArrow=classic;html=1;rounded=0;exitX=0.25;exitY=1;exitDx=0;exitDy=0;" edge="1" parent="1" source="om_oLx067shVRehD0WzR-4">
          <mxGeometry width="50" height="50" relative="1" as="geometry">
            <mxPoint x="390" y="340" as="sourcePoint" />
            <mxPoint x="570" y="400" as="targetPoint" />
          </mxGeometry>
        </mxCell>
        <mxCell id="om_oLx067shVRehD0WzR-17" value="Notifica al personale" style="whiteSpace=wrap;html=1;aspect=fixed;" vertex="1" parent="1">
          <mxGeometry x="520" y="400" width="80" height="80" as="geometry" />
        </mxCell>
        <mxCell id="om_oLx067shVRehD0WzR-20" style="edgeStyle=orthogonalEdgeStyle;rounded=0;orthogonalLoop=1;jettySize=auto;html=1;exitX=0;exitY=0.25;exitDx=0;exitDy=0;" edge="1" parent="1" source="om_oLx067shVRehD0WzR-18" target="om_oLx067shVRehD0WzR-2">
          <mxGeometry relative="1" as="geometry" />
        </mxCell>
        <mxCell id="om_oLx067shVRehD0WzR-21" style="edgeStyle=orthogonalEdgeStyle;rounded=0;orthogonalLoop=1;jettySize=auto;html=1;exitX=0;exitY=0.5;exitDx=0;exitDy=0;entryX=0.75;entryY=0;entryDx=0;entryDy=0;" edge="1" parent="1" source="om_oLx067shVRehD0WzR-18" target="om_oLx067shVRehD0WzR-2">
          <mxGeometry relative="1" as="geometry" />
        </mxCell>
        <mxCell id="om_oLx067shVRehD0WzR-25" style="edgeStyle=orthogonalEdgeStyle;rounded=0;orthogonalLoop=1;jettySize=auto;html=1;exitX=1;exitY=0.5;exitDx=0;exitDy=0;entryX=0.9;entryY=-0.012;entryDx=0;entryDy=0;entryPerimeter=0;" edge="1" parent="1" source="om_oLx067shVRehD0WzR-18" target="om_oLx067shVRehD0WzR-1">
          <mxGeometry relative="1" as="geometry" />
        </mxCell>
        <mxCell id="om_oLx067shVRehD0WzR-26" style="edgeStyle=orthogonalEdgeStyle;rounded=0;orthogonalLoop=1;jettySize=auto;html=1;exitX=1;exitY=0.25;exitDx=0;exitDy=0;entryX=0.5;entryY=0;entryDx=0;entryDy=0;" edge="1" parent="1" source="om_oLx067shVRehD0WzR-18" target="om_oLx067shVRehD0WzR-1">
          <mxGeometry relative="1" as="geometry" />
        </mxCell>
        <mxCell id="om_oLx067shVRehD0WzR-18" value="Observer" style="whiteSpace=wrap;html=1;aspect=fixed;" vertex="1" parent="1">
          <mxGeometry x="230" y="100" width="80" height="80" as="geometry" />
        </mxCell>
        <mxCell id="om_oLx067shVRehD0WzR-27" value="Factory" style="whiteSpace=wrap;html=1;aspect=fixed;" vertex="1" parent="1">
          <mxGeometry x="310" y="350" width="80" height="80" as="geometry" />
        </mxCell>
        <mxCell id="om_oLx067shVRehD0WzR-28" value="" style="endArrow=none;dashed=1;html=1;rounded=0;" edge="1" parent="1">
          <mxGeometry width="50" height="50" relative="1" as="geometry">
            <mxPoint x="360" y="360" as="sourcePoint" />
            <mxPoint x="360" y="260" as="targetPoint" />
            <Array as="points">
              <mxPoint x="230" y="300" />
            </Array>
          </mxGeometry>
        </mxCell>
        <mxCell id="om_oLx067shVRehD0WzR-29" value="Sistema di invio messaggi" style="text;html=1;align=center;verticalAlign=middle;resizable=0;points=[];autosize=1;strokeColor=none;fillColor=none;" vertex="1" parent="1">
          <mxGeometry x="320" y="268" width="160" height="30" as="geometry" />
        </mxCell>
      </root>
    </mxGraphModel>
  </diagram>
</mxfile>
